<svg width="20" height="20" viewBox="0 0 20 20" fill="none" xmlns="http://www.w3.org/2000/svg">
<g clip-path="url(#clip0_523_24021)">
<path d="M8.02661 10.5205C8.15666 11.006 8.45113 11.4034 8.83404 11.669M11.97 9.46395C11.8501 9.01695 11.5909 8.64453 11.2515 8.38095L11.97 9.46395Z" stroke="#959595" stroke-width="1.66667" stroke-linecap="round" stroke-linejoin="round"/>
<path d="M17.5 10C16.9089 10.6843 16.2743 11.3328 15.5926 11.9055M10 14.1667C6.92773 14.1667 4.47155 12.2827 2.5 10L10 14.1667Z" stroke="#959595" stroke-width="1.66667" stroke-linecap="round" stroke-linejoin="round"/>
<path d="M2.5 10C3.14161 9.33143 3.83454 8.65676 4.58333 8.05069M10 5.83334C13.0722 5.83334 15.5284 7.94556 17.5 10L10 5.83334Z" stroke="#959595" stroke-width="1.66667" stroke-linecap="round" stroke-linejoin="round"/>
<path d="M2.84497 2.53174L16.6987 17.1551" stroke="#959595" stroke-width="1.66667" stroke-linecap="round"/>
</g>
<defs>
<clipPath id="clip0_523_24021">
<rect width="20" height="20" fill="white"/>
</clipPath>
</defs>
</svg>
