<svg width="40" height="40" viewBox="0 0 40 40" fill="none" xmlns="http://www.w3.org/2000/svg">
<path d="M12.7385 22.9111V24.3659C13.8317 24.3659 14.7863 23.7807 15.2971 22.9111H12.7385Z" fill="#386DD4"/>
<path d="M15.6923 21.4563H14.2154C14.2154 22.26 13.5545 22.9111 12.7385 22.9111H15.2971C15.5484 22.4831 15.6923 21.9862 15.6923 21.4563Z" fill="#386DD4"/>
<path d="M12.7385 22.9111C12.3308 22.9111 12 23.237 12 23.6385C12 24.04 12.3308 24.3659 12.7385 24.3659V22.9111Z" fill="#386DD4"/>
<path d="M14.9538 17.8192H14.2154V21.4563H15.6923V17.8192H14.9538Z" fill="#386DD4"/>
<path d="M14.2154 17.8192H14.9538H15.6923C15.6923 15.4086 17.6758 13.4548 20.1231 13.4548V12C16.8606 12 14.2154 14.6056 14.2154 17.8192Z" fill="#386DD4"/>
<path d="M25.2923 17.8192H26.0308C26.0308 14.6056 23.3856 12 20.1231 12V13.4548C22.5703 13.4548 24.5538 15.4086 24.5538 17.8192H25.2923Z" fill="#386DD4"/>
<path d="M26.0308 17.8192H25.2923H24.5538V21.4563H26.0308V17.8192Z" fill="#386DD4"/>
<path d="M26.0308 21.4563H24.5538C24.5538 21.9862 24.6977 22.4831 24.9491 22.9111H27.5077C26.6917 22.9111 26.0308 22.26 26.0308 21.4563Z" fill="#386DD4"/>
<path d="M27.5077 24.3659C27.5077 24.3659 28.6154 23.6385 27.5077 22.9111H24.9491C25.4598 23.7807 26.4144 24.3659 27.5077 24.3659Z" fill="#386DD4"/>
<path d="M12.7385 24.3659H27.5077C26.4144 24.3659 25.4598 23.7807 24.9491 22.9111H15.2971C14.7863 23.7807 13.8317 24.3659 12.7385 24.3659Z" fill="#386DD4"/>
<path d="M21.4006 26.5481V25.8207H18.8455V26.5481L19.4843 26.1829C19.6165 26.4077 19.8594 26.5452 20.1231 26.5452C20.3867 26.5452 20.6297 26.4077 20.7618 26.1829L21.4006 26.5481Z" fill="#386DD4"/>
<path d="M18.8455 26.5481V25.8207C18.5812 25.8207 18.3375 25.9596 18.2053 26.1851C18.0739 26.4106 18.0746 26.6878 18.2068 26.9133L18.8455 26.5481Z" fill="#386DD4"/>
<path d="M20.7618 26.1829C20.6297 26.4077 20.3867 26.5452 20.1231 26.5452V27.2755H21.4006V26.5481L20.7618 26.1829Z" fill="#386DD4"/>
<path d="M21.4006 26.5481L22.0394 26.9133C22.1716 26.6878 22.1723 26.4106 22.0409 26.1851C21.9087 25.9596 21.665 25.8207 21.4006 25.8207V26.5481Z" fill="#386DD4"/>
<path fill-rule="evenodd" clip-rule="evenodd" d="M12.7385 22.9111C13.5545 22.9111 14.2154 22.26 14.2154 21.4563V17.8192C14.2154 14.6056 16.8606 12 20.1231 12C23.3856 12 26.0308 14.6056 26.0308 17.8192V21.4563C26.0308 22.26 26.6917 22.9111 27.5077 22.9111C28.6154 23.6385 27.5077 24.3659 27.5077 24.3659H12.7385C12.3308 24.3659 12 24.04 12 23.6385C12 23.237 12.3308 22.9111 12.7385 22.9111ZM24.5538 21.4563C24.5538 21.9862 24.6977 22.4831 24.9491 22.9111H15.2971C15.5484 22.4831 15.6923 21.9862 15.6923 21.4563V17.8192C15.6923 15.4086 17.6758 13.4548 20.1231 13.4548C22.5703 13.4548 24.5538 15.4086 24.5538 17.8192V21.4563ZM20.1231 28C19.3329 28 18.6033 27.5861 18.2068 26.9133C18.0746 26.6878 18.0739 26.4106 18.2053 26.1851C18.3375 25.9596 18.5812 25.8207 18.8455 25.8207H21.4006C21.665 25.8207 21.9087 25.9596 22.0409 26.1851C22.1723 26.4106 22.1716 26.6878 22.0394 26.9133C21.6428 27.5861 20.9132 28 20.1231 28Z" fill="#386DD4"/>
<path d="M22.0394 26.9133L21.4006 26.5481V27.2755H20.1231V28C20.9132 28 21.6428 27.5861 22.0394 26.9133Z" fill="#386DD4"/>
<path d="M18.8455 26.5481L18.2068 26.9133C18.6033 27.5861 19.3329 28 20.1231 28V27.2755H18.8455V26.5481Z" fill="#386DD4"/>
<path d="M20.1231 26.5452C19.8594 26.5452 19.6165 26.4077 19.4843 26.1829L18.8455 26.5481V27.2755H20.1231V26.5452Z" fill="#386DD4"/>
<path d="M15.6923 17.8192V21.4563C15.6923 21.9862 15.5484 22.4831 15.2971 22.9111H24.9491C24.6977 22.4831 24.5538 21.9862 24.5538 21.4563V17.8192C24.5538 15.4086 22.5703 13.4548 20.1231 13.4548C17.6758 13.4548 15.6923 15.4086 15.6923 17.8192Z" fill="#386DD4"/>
</svg>
