<svg width="41" height="40" viewBox="0 0 41 40" fill="none" xmlns="http://www.w3.org/2000/svg">
<path d="M18.8894 21.75C20.0816 21.75 21.4086 22.3144 22.4314 23.1885C23.4565 24.0647 24.2497 25.3172 24.2498 26.75V27.3125C24.2498 28.5206 23.2704 29.5 22.0623 29.5H10.2498C9.0416 29.5 8.06231 28.5205 8.06226 27.3125V26.75C8.06228 25.3034 8.92047 24.0492 9.99194 23.1797C11.0629 22.3106 12.4365 21.75 13.6248 21.75H18.8894Z" fill="#959595" stroke="white" stroke-linecap="round" stroke-linejoin="round"/>
<path d="M16.156 10.5C18.5231 10.5 20.4528 12.3971 20.4529 14.75C20.4529 17.1029 18.5231 19 16.156 19C13.7889 19 11.8591 17.1029 11.8591 14.75C11.8592 12.3971 13.7889 10.5 16.156 10.5Z" fill="#959595" stroke="white" stroke-linecap="round" stroke-linejoin="round"/>
<path d="M22.8125 22.75H28.0771C28.9818 22.75 30.0857 23.1937 30.9688 23.9482C31.8492 24.7007 32.4375 25.6979 32.4375 26.75V27.3125C32.4375 27.9684 31.9059 28.5 31.25 28.5H19.4375C18.7818 28.5 18.2501 27.9684 18.25 27.3125V26.75C18.25 25.7116 18.8741 24.7152 19.8096 23.9561C20.7457 23.1964 21.9039 22.75 22.8125 22.75Z" fill="#959595" stroke="#959595" stroke-linecap="round" stroke-linejoin="round"/>
<path d="M25.3438 11.5C27.1703 11.5 28.6406 12.961 28.6406 14.75C28.6406 16.539 27.1703 18 25.3438 18C23.5172 18 22.0469 16.539 22.0469 14.75C22.0469 12.9611 23.5172 11.5 25.3438 11.5Z" fill="#959595" stroke="#959595" stroke-linecap="round" stroke-linejoin="round"/>
</svg>
