<svg width="40" height="40" viewBox="0 0 40 40" fill="none" xmlns="http://www.w3.org/2000/svg">
<path d="M18.1394 21.75C19.3316 21.75 20.6586 22.3144 21.6814 23.1885C22.7065 24.0647 23.4997 25.3172 23.4998 26.75V27.3125C23.4998 28.5206 22.5204 29.5 21.3123 29.5H9.49976C8.2916 29.5 7.31231 28.5205 7.31226 27.3125V26.75C7.31228 25.3034 8.17047 24.0492 9.24194 23.1797C10.3129 22.3106 11.6865 21.75 12.8748 21.75H18.1394Z" fill="#386DD4" stroke="white" stroke-linecap="round" stroke-linejoin="round"/>
<path d="M15.406 10.5C17.7731 10.5 19.7028 12.3971 19.7029 14.75C19.7029 17.1029 17.7731 19 15.406 19C13.0389 19 11.1091 17.1029 11.1091 14.75C11.1092 12.3971 13.0389 10.5 15.406 10.5Z" fill="#386DD4" stroke="white" stroke-linecap="round" stroke-linejoin="round"/>
<path d="M22.0625 22.75H27.3271C28.2318 22.75 29.3357 23.1937 30.2188 23.9482C31.0992 24.7007 31.6875 25.6979 31.6875 26.75V27.3125C31.6875 27.9684 31.1559 28.5 30.5 28.5H18.6875C18.0318 28.5 17.5001 27.9684 17.5 27.3125V26.75C17.5 25.7116 18.1241 24.7152 19.0596 23.9561C19.9957 23.1964 21.1539 22.75 22.0625 22.75Z" fill="#386DD4" stroke="#386DD4" stroke-linecap="round" stroke-linejoin="round"/>
<path d="M24.5938 11.5C26.4203 11.5 27.8906 12.961 27.8906 14.75C27.8906 16.539 26.4203 18 24.5938 18C22.7672 18 21.2969 16.539 21.2969 14.75C21.2969 12.9611 22.7672 11.5 24.5938 11.5Z" fill="#386DD4" stroke="#386DD4" stroke-linecap="round" stroke-linejoin="round"/>
</svg>
