<svg width="41" height="40" viewBox="0 0 41 40" fill="none" xmlns="http://www.w3.org/2000/svg">
<path d="M12.9885 22.9111V24.3659C14.0817 24.3659 15.0363 23.7807 15.5471 22.9111H12.9885Z" fill="#959595"/>
<path d="M15.9423 21.4563H14.4654C14.4654 22.26 13.8045 22.9111 12.9885 22.9111H15.5471C15.7984 22.4831 15.9423 21.9862 15.9423 21.4563Z" fill="#959595"/>
<path d="M12.9885 22.9111C12.5808 22.9111 12.25 23.237 12.25 23.6385C12.25 24.04 12.5808 24.3659 12.9885 24.3659V22.9111Z" fill="#959595"/>
<path d="M15.2038 17.8192H14.4654V21.4563H15.9423V17.8192H15.2038Z" fill="#959595"/>
<path d="M14.4654 17.8192H15.2038H15.9423C15.9423 15.4086 17.9258 13.4548 20.3731 13.4548V12C17.1106 12 14.4654 14.6056 14.4654 17.8192Z" fill="#959595"/>
<path d="M25.5423 17.8192H26.2808C26.2808 14.6056 23.6356 12 20.3731 12V13.4548C22.8203 13.4548 24.8038 15.4086 24.8038 17.8192H25.5423Z" fill="#959595"/>
<path d="M26.2808 17.8192H25.5423H24.8038V21.4563H26.2808V17.8192Z" fill="#959595"/>
<path d="M26.2808 21.4563H24.8038C24.8038 21.9862 24.9477 22.4831 25.1991 22.9111H27.7577C26.9417 22.9111 26.2808 22.26 26.2808 21.4563Z" fill="#959595"/>
<path d="M27.7577 24.3659C27.7577 24.3659 28.8654 23.6385 27.7577 22.9111H25.1991C25.7098 23.7807 26.6644 24.3659 27.7577 24.3659Z" fill="#959595"/>
<path d="M12.9885 24.3659H27.7577C26.6644 24.3659 25.7098 23.7807 25.1991 22.9111H15.5471C15.0363 23.7807 14.0817 24.3659 12.9885 24.3659Z" fill="#959595"/>
<path d="M21.6506 26.5481V25.8207H19.0955V26.5481L19.7343 26.1829C19.8665 26.4077 20.1094 26.5452 20.3731 26.5452C20.6367 26.5452 20.8797 26.4077 21.0118 26.1829L21.6506 26.5481Z" fill="#959595"/>
<path d="M19.0955 26.5481V25.8207C18.8312 25.8207 18.5875 25.9596 18.4553 26.1851C18.3239 26.4106 18.3246 26.6878 18.4568 26.9133L19.0955 26.5481Z" fill="#959595"/>
<path d="M21.0118 26.1829C20.8797 26.4077 20.6367 26.5452 20.3731 26.5452V27.2755H21.6506V26.5481L21.0118 26.1829Z" fill="#959595"/>
<path d="M21.6506 26.5481L22.2894 26.9133C22.4216 26.6878 22.4223 26.4106 22.2909 26.1851C22.1587 25.9596 21.915 25.8207 21.6506 25.8207V26.5481Z" fill="#959595"/>
<path fill-rule="evenodd" clip-rule="evenodd" d="M12.9885 22.9111C13.8045 22.9111 14.4654 22.26 14.4654 21.4563V17.8192C14.4654 14.6056 17.1106 12 20.3731 12C23.6356 12 26.2808 14.6056 26.2808 17.8192V21.4563C26.2808 22.26 26.9417 22.9111 27.7577 22.9111C28.8654 23.6385 27.7577 24.3659 27.7577 24.3659H12.9885C12.5808 24.3659 12.25 24.04 12.25 23.6385C12.25 23.237 12.5808 22.9111 12.9885 22.9111ZM24.8038 21.4563C24.8038 21.9862 24.9477 22.4831 25.1991 22.9111H15.5471C15.7984 22.4831 15.9423 21.9862 15.9423 21.4563V17.8192C15.9423 15.4086 17.9258 13.4548 20.3731 13.4548C22.8203 13.4548 24.8038 15.4086 24.8038 17.8192V21.4563ZM20.3731 28C19.5829 28 18.8533 27.5861 18.4568 26.9133C18.3246 26.6878 18.3239 26.4106 18.4553 26.1851C18.5875 25.9596 18.8312 25.8207 19.0955 25.8207H21.6506C21.915 25.8207 22.1587 25.9596 22.2909 26.1851C22.4223 26.4106 22.4216 26.6878 22.2894 26.9133C21.8928 27.5861 21.1632 28 20.3731 28Z" fill="#959595"/>
<path d="M22.2894 26.9133L21.6506 26.5481V27.2755H20.3731V28C21.1632 28 21.8928 27.5861 22.2894 26.9133Z" fill="#959595"/>
<path d="M19.0955 26.5481L18.4568 26.9133C18.8533 27.5861 19.5829 28 20.3731 28V27.2755H19.0955V26.5481Z" fill="#959595"/>
<path d="M20.3731 26.5452C20.1094 26.5452 19.8665 26.4077 19.7343 26.1829L19.0955 26.5481V27.2755H20.3731V26.5452Z" fill="#959595"/>
<path d="M15.9423 17.8192V21.4563C15.9423 21.9862 15.7984 22.4831 15.5471 22.9111H25.1991C24.9477 22.4831 24.8038 21.9862 24.8038 21.4563V17.8192C24.8038 15.4086 22.8203 13.4548 20.3731 13.4548C17.9258 13.4548 15.9423 15.4086 15.9423 17.8192Z" fill="#959595"/>
</svg>
